<svg xmlns="http://www.w3.org/2000/svg" viewBox="0 0 1024 1024" role="img" aria-label="TrendSight">
  <defs>
    <linearGradient id="tile" x1="148" y1="104" x2="872" y2="920" gradientUnits="userSpaceOnUse">
      <stop stop-color="#ffffff"/>
      <stop offset="1" stop-color="#edf5ff"/>
    </linearGradient>
    <linearGradient id="teal" x1="222" y1="480" x2="334" y2="672" gradientUnits="userSpaceOnUse">
      <stop stop-color="#42d8c8"/>
      <stop offset="1" stop-color="#13b7aa"/>
    </linearGradient>
    <linearGradient id="blue" x1="414" y1="360" x2="536" y2="585" gradientUnits="userSpaceOnUse">
      <stop stop-color="#61b7ff"/>
      <stop offset="1" stop-color="#2486ee"/>
    </linearGradient>
    <linearGradient id="amber" x1="592" y1="255" x2="722" y2="500" gradientUnits="userSpaceOnUse">
      <stop stop-color="#ffd66b"/>
      <stop offset="1" stop-color="#f4ad28"/>
    </linearGradient>
    <filter id="tile-shadow" x="-12%" y="-12%" width="124%" height="128%">
      <feDropShadow dx="0" dy="18" stdDeviation="24" flood-color="#0a4b91" flood-opacity=".12"/>
    </filter>
    <filter id="mark-shadow" x="-20%" y="-20%" width="140%" height="145%">
      <feDropShadow dx="0" dy="10" stdDeviation="12" flood-color="#0a4b91" flood-opacity=".14"/>
    </filter>
  </defs>

  <rect width="1024" height="1024" fill="#ffffff"/>
  <rect x="48" y="42" width="928" height="928" rx="222" fill="url(#tile)" stroke="#d9e7f6" stroke-width="8" filter="url(#tile-shadow)"/>

  <g filter="url(#mark-shadow)">
    <path d="M278 408V720" stroke="#13b7aa" stroke-width="22" stroke-linecap="round"/>
    <rect x="222" y="480" width="112" height="192" rx="24" fill="url(#teal)" stroke="#ffffff" stroke-width="8"/>

    <path d="M475 288V650" stroke="#2486ee" stroke-width="22" stroke-linecap="round"/>
    <rect x="414" y="360" width="122" height="225" rx="26" fill="url(#blue)" stroke="#ffffff" stroke-width="8"/>

    <path d="M657 180V565" stroke="#f4ad28" stroke-width="22" stroke-linecap="round"/>
    <rect x="592" y="255" width="130" height="245" rx="28" fill="url(#amber)" stroke="#ffffff" stroke-width="8"/>

    <path d="M232 780L430 582L558 677L804 392" fill="none" stroke="#0071e3" stroke-width="70" stroke-linecap="round" stroke-linejoin="round"/>
    <path d="M742 344L880 305L850 443L806 397Z" fill="#0071e3" stroke="#ffffff" stroke-width="8" stroke-linejoin="round"/>
  </g>
</svg>
